<svg width="200" height="200" viewBox="0 0 200 200" fill="none" xmlns="http://www.w3.org/2000/svg">
<path d="M100 0C32.1711 0 0 32.1711 0 100C0 167.829 32.1711 200 100 200C167.829 200 200 167.829 200 100C200 32.1711 167.829 0 100 0Z" fill="white"/>
<path d="M37.216 124.024C32.5227 124.024 28.4693 123.064 25.056 121.144C21.6853 119.224 19.104 116.493 17.312 112.952C15.52 109.411 14.624 105.208 14.624 100.344C14.624 95.48 15.52 91.2773 17.312 87.736C19.104 84.152 21.6853 81.4 25.056 79.48C28.4693 77.5173 32.5227 76.536 37.216 76.536C41.952 76.536 45.984 77.5173 49.312 79.48C52.6827 81.4 55.264 84.152 57.056 87.736C58.8907 91.2773 59.808 95.48 59.808 100.344C59.808 105.208 58.8907 109.411 57.056 112.952C55.264 116.493 52.6827 119.224 49.312 121.144C45.984 123.064 41.952 124.024 37.216 124.024ZM37.216 114.936C39.5627 114.936 41.5467 114.36 43.168 113.208C44.832 112.056 46.112 110.392 47.008 108.216C47.904 106.04 48.352 103.416 48.352 100.344C48.352 97.272 47.904 94.648 47.008 92.472C46.112 90.2533 44.832 88.568 43.168 87.416C41.504 86.2213 39.4987 85.624 37.152 85.624C34.848 85.624 32.864 86.2213 31.2 87.416C29.536 88.568 28.256 90.2533 27.36 92.472C26.5067 94.648 26.08 97.272 26.08 100.344C26.08 103.416 26.5067 106.04 27.36 108.216C28.256 110.392 29.536 112.056 31.2 113.208C32.864 114.36 34.8693 114.936 37.216 114.936ZM67.8775 98.616H63.5895V91H67.8775V80.76H76.9015V91H84.8375V98.616H76.9015V111.224C76.9015 114.744 77.9895 116.024 80.2295 116.024C81.3815 116.024 82.7255 115.64 84.1975 114.744L86.0535 121.976C83.4295 123.064 80.9975 123.64 78.5655 123.64C71.9095 123.64 67.8775 120.376 67.8775 111.736V98.616ZM92.1275 98.616H87.8395V91H92.1275V80.76H101.152V91H109.088V98.616H101.152V111.224C101.152 114.744 102.24 116.024 104.48 116.024C105.632 116.024 106.976 115.64 108.448 114.744L110.304 121.976C107.68 123.064 105.248 123.64 102.816 123.64C96.1595 123.64 92.1275 120.376 92.1275 111.736V98.616ZM133.402 91L131.866 99.384C130.458 98.936 129.37 98.744 128.346 98.744C124.378 98.744 123.738 101.816 123.738 106.488V123H114.714V91H123.738V94.008C125.338 91.448 127.385 90.36 129.882 90.36C130.97 90.36 132.122 90.552 133.402 91ZM139.745 123V98.616H136.033V91H144.545C147.745 91 148.769 91.512 148.769 94.52V123H139.745ZM139.937 86.648V78.2H148.641V86.648H139.937ZM177.651 111.096L185.843 114.744C183.539 120.056 178.739 123.64 171.378 123.64C160.755 123.64 155.443 116.984 155.443 107C155.443 97.016 160.755 90.36 171.378 90.36C178.227 90.36 182.963 93.496 185.395 98.04L177.587 102.712C176.051 99.576 173.747 97.976 171.378 97.976C166.707 97.976 164.467 101.496 164.467 107C164.467 112.504 166.707 116.024 171.378 116.024C173.811 116.024 176.371 114.36 177.651 111.096Z" fill="#252525"/>
</svg>
