<svg width="48" height="48" viewBox="0 0 48 48" fill="none" xmlns="http://www.w3.org/2000/svg">
<path d="M29.8451 4.36554C29.2602 4.12321 28.6331 3.99897 28 4V14C28 14.5304 28.2107 15.0391 28.5858 15.4142C28.9609 15.7893 29.4696 16 30 16L40 16C40.001 15.3659 39.8764 14.738 39.6334 14.1523C39.3903 13.5667 39.0337 13.035 38.584 12.588L31.408 5.412C30.9611 4.96352 30.43 4.60787 29.8451 4.36554Z" fill="#ED676A"/>
<path d="M9.17157 42.8284C9.92172 43.5786 10.9391 44 12 44H36C37.0609 44 38.0783 43.5786 38.8284 42.8284C39.5786 42.0783 40 41.0609 40 40V16L30 16C29.4696 16 28.9609 15.7893 28.5858 15.4142C28.2107 15.0391 28 14.5304 28 14V4H12C10.9391 4 9.92172 4.42143 9.17157 5.17157C8.42143 5.92172 8 6.93913 8 8V40C8 41.0609 8.42143 42.0783 9.17157 42.8284Z" fill="#E5252A"/>
<path d="M28 4H12C10.9391 4 9.92172 4.42143 9.17157 5.17157C8.42143 5.92172 8 6.93913 8 8V40C8 41.0609 8.42143 42.0783 9.17157 42.8284C9.92172 43.5786 10.9391 44 12 44H36C37.0609 44 38.0783 43.5786 38.8284 42.8284C39.5786 42.0783 40 41.0609 40 40V16M28 4C28.6331 3.99897 29.2602 4.12321 29.8451 4.36554C30.43 4.60787 30.9611 4.96352 31.408 5.412L38.584 12.588C39.0337 13.035 39.3903 13.5667 39.6334 14.1523C39.8764 14.738 40.001 15.3659 40 16M28 4V14C28 14.5304 28.2107 15.0391 28.5858 15.4142C28.9609 15.7893 29.4696 16 30 16L40 16" stroke="black" stroke-width="2" stroke-linecap="round" stroke-linejoin="round"/>
<path d="M14.68 33V25.9H17.62C18.4933 25.9 19.1767 26.1133 19.67 26.54C20.17 26.96 20.42 27.5367 20.42 28.27C20.42 28.7567 20.3067 29.18 20.08 29.54C19.86 29.8933 19.54 30.1667 19.12 30.36C18.7 30.5533 18.2 30.65 17.62 30.65H16.42V33H14.68ZM16.42 29.22H17.5C17.8533 29.22 18.13 29.14 18.33 28.98C18.5367 28.82 18.64 28.5833 18.64 28.27C18.64 27.9633 18.54 27.73 18.34 27.57C18.14 27.4033 17.86 27.32 17.5 27.32H16.42V29.22ZM21.2718 33V25.9H23.8018C24.9751 25.9 25.8751 26.21 26.5018 26.83C27.1351 27.4433 27.4518 28.32 27.4518 29.46C27.4518 30.5933 27.1418 31.4667 26.5218 32.08C25.9018 32.6933 25.0151 33 23.8618 33H21.2718ZM23.0118 31.58H23.8018C24.4418 31.58 24.9118 31.4067 25.2118 31.06C25.5118 30.7133 25.6618 30.1767 25.6618 29.45C25.6618 28.7233 25.5118 28.1867 25.2118 27.84C24.9118 27.4933 24.4418 27.32 23.8018 27.32H23.0118V31.58ZM28.3714 33V25.9H33.4114V27.32H29.1314L30.1114 26.31V29.56L29.1314 28.82H33.2314V30.24H29.1314L30.1114 29.5V33H28.3714Z" fill="white"/>
</svg>
